<mxfile host="app.diagrams.net" modified="2024-05-21T11:39:05.660Z" agent="Mozilla/5.0 (Windows NT 10.0; Win64; x64) AppleWebKit/537.36 (KHTML, like Gecko) Chrome/124.0.0.0 Safari/537.36" etag="-VMtz6PITdY9xTmr1lrl" version="24.4.4" type="device">
  <diagram name="Page-1" id="h1EBNZsYMViu1sllDhEk">
    <mxGraphModel dx="2924" dy="2198" grid="1" gridSize="10" guides="1" tooltips="1" connect="1" arrows="1" fold="1" page="1" pageScale="1" pageWidth="850" pageHeight="1100" math="0" shadow="0">
      <root>
        <mxCell id="0" />
        <mxCell id="1" parent="0" />
        <mxCell id="YNeAX88VHMWBPFAsNfOV-33" value="us-east-1 region" style="points=[[0,0],[0.25,0],[0.5,0],[0.75,0],[1,0],[1,0.25],[1,0.5],[1,0.75],[1,1],[0.75,1],[0.5,1],[0.25,1],[0,1],[0,0.75],[0,0.5],[0,0.25]];outlineConnect=0;gradientColor=none;html=1;whiteSpace=wrap;fontSize=12;fontStyle=0;container=0;pointerEvents=0;collapsible=0;recursiveResize=0;shape=mxgraph.aws4.group;grIcon=mxgraph.aws4.group_region;strokeColor=#00A4A6;fillColor=none;verticalAlign=top;align=left;spacingLeft=30;fontColor=#147EBA;dashed=1;" vertex="1" parent="1">
          <mxGeometry x="-160" y="-50" width="1130" height="870" as="geometry" />
        </mxCell>
        <mxCell id="YNeAX88VHMWBPFAsNfOV-55" value="Availability Zone B" style="rounded=1;arcSize=10;dashed=1;strokeColor=#F59D56;fillColor=none;gradientColor=none;dashPattern=8 4;strokeWidth=2;align=center;container=0;verticalAlign=bottom;" vertex="1" parent="1">
          <mxGeometry x="390.5" y="175" width="340" height="260" as="geometry" />
        </mxCell>
        <mxCell id="YNeAX88VHMWBPFAsNfOV-19" value="Availability Zone A" style="rounded=1;arcSize=10;dashed=1;strokeColor=#F59D56;fillColor=none;gradientColor=none;dashPattern=8 4;strokeWidth=2;align=center;container=0;verticalAlign=bottom;" vertex="1" parent="1">
          <mxGeometry x="-50" y="170" width="340" height="260" as="geometry" />
        </mxCell>
        <mxCell id="YNeAX88VHMWBPFAsNfOV-48" value="VPC" style="sketch=0;outlineConnect=0;gradientColor=none;html=1;whiteSpace=wrap;fontSize=12;fontStyle=0;shape=mxgraph.aws4.group;grIcon=mxgraph.aws4.group_vpc;strokeColor=#879196;fillColor=none;verticalAlign=top;align=left;spacingLeft=30;fontColor=#879196;dashed=0;" vertex="1" parent="1">
          <mxGeometry x="-140" y="20" width="1002.63" height="750" as="geometry" />
        </mxCell>
        <mxCell id="YNeAX88VHMWBPFAsNfOV-15" value="ALB" style="outlineConnect=0;dashed=0;verticalLabelPosition=bottom;verticalAlign=top;align=center;html=1;shape=mxgraph.aws3.application_load_balancer;fillColor=#F58534;gradientColor=none;" vertex="1" parent="1">
          <mxGeometry x="371" y="540" width="69" height="72" as="geometry" />
        </mxCell>
        <mxCell id="YNeAX88VHMWBPFAsNfOV-17" value="Internet Gateway" style="outlineConnect=0;dashed=0;verticalLabelPosition=bottom;verticalAlign=top;align=center;html=1;shape=mxgraph.aws3.internet_gateway;fillColor=#F58534;gradientColor=none;" vertex="1" parent="1">
          <mxGeometry x="375.79" y="710" width="59.42" height="62" as="geometry" />
        </mxCell>
        <mxCell id="YNeAX88VHMWBPFAsNfOV-18" value="&lt;h1&gt;High Level AWS Infrastructure Architecture Diagram&lt;/h1&gt;" style="text;html=1;align=center;verticalAlign=middle;resizable=0;points=[];autosize=1;strokeColor=none;fillColor=none;" vertex="1" parent="1">
          <mxGeometry x="95.50000000000001" y="-130" width="620" height="70" as="geometry" />
        </mxCell>
        <mxCell id="YNeAX88VHMWBPFAsNfOV-23" value="Private subnet" style="points=[[0,0],[0.25,0],[0.5,0],[0.75,0],[1,0],[1,0.25],[1,0.5],[1,0.75],[1,1],[0.75,1],[0.5,1],[0.25,1],[0,1],[0,0.75],[0,0.5],[0,0.25]];outlineConnect=0;gradientColor=none;html=1;whiteSpace=wrap;fontSize=12;fontStyle=0;container=1;pointerEvents=0;collapsible=0;recursiveResize=0;shape=mxgraph.aws4.group;grIcon=mxgraph.aws4.group_security_group;grStroke=0;strokeColor=#00A4A6;fillColor=#E6F6F7;verticalAlign=top;align=left;spacingLeft=30;fontColor=#147EBA;dashed=0;" vertex="1" parent="1">
          <mxGeometry x="130" y="220" width="130" height="130" as="geometry" />
        </mxCell>
        <mxCell id="YNeAX88VHMWBPFAsNfOV-30" value="RDS" style="outlineConnect=0;dashed=0;verticalLabelPosition=bottom;verticalAlign=top;align=center;html=1;shape=mxgraph.aws3.rds;fillColor=#2E73B8;gradientColor=none;" vertex="1" parent="YNeAX88VHMWBPFAsNfOV-23">
          <mxGeometry x="29.709999999999997" y="55" width="31.56" height="35.5" as="geometry" />
        </mxCell>
        <mxCell id="YNeAX88VHMWBPFAsNfOV-73" value="" style="endArrow=classic;html=1;rounded=0;exitX=0.322;exitY=0.558;exitDx=0;exitDy=0;exitPerimeter=0;" edge="1" parent="YNeAX88VHMWBPFAsNfOV-23">
          <mxGeometry width="50" height="50" relative="1" as="geometry">
            <mxPoint x="-42" y="74.07999999999993" as="sourcePoint" />
            <mxPoint x="18.019999999999982" y="74" as="targetPoint" />
          </mxGeometry>
        </mxCell>
        <mxCell id="YNeAX88VHMWBPFAsNfOV-43" value="Public subnet" style="points=[[0,0],[0.25,0],[0.5,0],[0.75,0],[1,0],[1,0.25],[1,0.5],[1,0.75],[1,1],[0.75,1],[0.5,1],[0.25,1],[0,1],[0,0.75],[0,0.5],[0,0.25]];outlineConnect=0;gradientColor=none;html=1;whiteSpace=wrap;fontSize=12;fontStyle=0;container=1;pointerEvents=0;collapsible=0;recursiveResize=0;shape=mxgraph.aws4.group;grIcon=mxgraph.aws4.group_security_group;grStroke=0;strokeColor=#7AA116;fillColor=#F2F6E8;verticalAlign=top;align=left;spacingLeft=30;fontColor=#248814;dashed=0;" vertex="1" parent="1">
          <mxGeometry x="-30" y="220" width="130" height="130" as="geometry" />
        </mxCell>
        <mxCell id="YNeAX88VHMWBPFAsNfOV-44" value="" style="sketch=0;outlineConnect=0;fontColor=#232F3E;gradientColor=none;strokeColor=#ffffff;fillColor=#232F3E;dashed=0;verticalLabelPosition=middle;verticalAlign=bottom;align=center;html=1;whiteSpace=wrap;fontSize=10;fontStyle=1;spacing=3;shape=mxgraph.aws4.productIcon;prIcon=mxgraph.aws4.ec2;" vertex="1" parent="1">
          <mxGeometry x="-30" y="265" width="56" height="70" as="geometry" />
        </mxCell>
        <mxCell id="YNeAX88VHMWBPFAsNfOV-45" value="&lt;span style=&quot;color: rgb(35, 47, 62); font-family: Helvetica; font-size: 10px; font-style: normal; font-variant-ligatures: normal; font-variant-caps: normal; font-weight: 700; letter-spacing: normal; orphans: 2; text-align: center; text-indent: 0px; text-transform: none; widows: 2; word-spacing: 0px; -webkit-text-stroke-width: 0px; white-space: normal; background-color: rgb(251, 251, 251); text-decoration-thickness: initial; text-decoration-style: initial; text-decoration-color: initial; display: inline !important; float: none;&quot;&gt;Bastion Server - EC2&lt;/span&gt;" style="text;whiteSpace=wrap;html=1;" vertex="1" parent="1">
          <mxGeometry x="-30" y="275" width="65" height="20" as="geometry" />
        </mxCell>
        <mxCell id="YNeAX88VHMWBPFAsNfOV-46" value="Amazon ECS" style="sketch=0;outlineConnect=0;fontColor=#232F3E;gradientColor=none;strokeColor=#ffffff;fillColor=#232F3E;dashed=0;verticalLabelPosition=middle;verticalAlign=bottom;align=center;html=1;whiteSpace=wrap;fontSize=10;fontStyle=1;spacing=3;shape=mxgraph.aws4.productIcon;prIcon=mxgraph.aws4.ecs;" vertex="1" parent="1">
          <mxGeometry x="36" y="265" width="52" height="65" as="geometry" />
        </mxCell>
        <mxCell id="YNeAX88VHMWBPFAsNfOV-4" value="Amazon ECR" style="sketch=0;outlineConnect=0;fontColor=#232F3E;gradientColor=none;strokeColor=#ffffff;fillColor=#232F3E;dashed=0;verticalLabelPosition=middle;verticalAlign=bottom;align=center;html=1;whiteSpace=wrap;fontSize=10;fontStyle=1;spacing=3;shape=mxgraph.aws4.productIcon;prIcon=mxgraph.aws4.ecr;" vertex="1" parent="1">
          <mxGeometry x="880" y="275" width="80" height="100" as="geometry" />
        </mxCell>
        <mxCell id="YNeAX88VHMWBPFAsNfOV-2" value="" style="outlineConnect=0;dashed=0;verticalLabelPosition=bottom;verticalAlign=top;align=center;html=1;shape=mxgraph.aws3.virtual_private_cloud;fillColor=#F58534;gradientColor=none;" vertex="1" parent="1">
          <mxGeometry x="-160" y="-10" width="79.5" height="54" as="geometry" />
        </mxCell>
        <mxCell id="YNeAX88VHMWBPFAsNfOV-49" value="Private subnet" style="points=[[0,0],[0.25,0],[0.5,0],[0.75,0],[1,0],[1,0.25],[1,0.5],[1,0.75],[1,1],[0.75,1],[0.5,1],[0.25,1],[0,1],[0,0.75],[0,0.5],[0,0.25]];outlineConnect=0;gradientColor=none;html=1;whiteSpace=wrap;fontSize=12;fontStyle=0;container=1;pointerEvents=0;collapsible=0;recursiveResize=0;shape=mxgraph.aws4.group;grIcon=mxgraph.aws4.group_security_group;grStroke=0;strokeColor=#00A4A6;fillColor=#E6F6F7;verticalAlign=top;align=left;spacingLeft=30;fontColor=#147EBA;dashed=0;" vertex="1" parent="1">
          <mxGeometry x="404.71" y="240" width="130" height="130" as="geometry" />
        </mxCell>
        <mxCell id="YNeAX88VHMWBPFAsNfOV-50" value="RDS" style="outlineConnect=0;dashed=0;verticalLabelPosition=bottom;verticalAlign=top;align=center;html=1;shape=mxgraph.aws3.rds;fillColor=#2E73B8;gradientColor=none;" vertex="1" parent="YNeAX88VHMWBPFAsNfOV-49">
          <mxGeometry x="49.22" y="55" width="31.56" height="35.5" as="geometry" />
        </mxCell>
        <mxCell id="YNeAX88VHMWBPFAsNfOV-51" value="Public subnet" style="points=[[0,0],[0.25,0],[0.5,0],[0.75,0],[1,0],[1,0.25],[1,0.5],[1,0.75],[1,1],[0.75,1],[0.5,1],[0.25,1],[0,1],[0,0.75],[0,0.5],[0,0.25]];outlineConnect=0;gradientColor=none;html=1;whiteSpace=wrap;fontSize=12;fontStyle=0;container=1;pointerEvents=0;collapsible=0;recursiveResize=0;shape=mxgraph.aws4.group;grIcon=mxgraph.aws4.group_security_group;grStroke=0;strokeColor=#7AA116;fillColor=#F2F6E8;verticalAlign=top;align=left;spacingLeft=30;fontColor=#248814;dashed=0;" vertex="1" parent="1">
          <mxGeometry x="590" y="240" width="130" height="130" as="geometry" />
        </mxCell>
        <mxCell id="YNeAX88VHMWBPFAsNfOV-54" value="Amazon ECS" style="sketch=0;outlineConnect=0;fontColor=#232F3E;gradientColor=none;strokeColor=#ffffff;fillColor=#232F3E;dashed=0;verticalLabelPosition=middle;verticalAlign=bottom;align=center;html=1;whiteSpace=wrap;fontSize=10;fontStyle=1;spacing=3;shape=mxgraph.aws4.productIcon;prIcon=mxgraph.aws4.ecs;" vertex="1" parent="YNeAX88VHMWBPFAsNfOV-51">
          <mxGeometry x="39" y="45" width="52" height="65" as="geometry" />
        </mxCell>
        <mxCell id="YNeAX88VHMWBPFAsNfOV-60" value="User" style="shape=umlActor;verticalLabelPosition=bottom;verticalAlign=top;html=1;outlineConnect=0;" vertex="1" parent="1">
          <mxGeometry x="390" y="860" width="30" height="60" as="geometry" />
        </mxCell>
        <mxCell id="YNeAX88VHMWBPFAsNfOV-66" value="" style="endArrow=classic;html=1;rounded=0;exitX=0.5;exitY=0;exitDx=0;exitDy=0;exitPerimeter=0;entryX=0.5;entryY=1;entryDx=0;entryDy=0;entryPerimeter=0;" edge="1" parent="1" source="YNeAX88VHMWBPFAsNfOV-60" target="YNeAX88VHMWBPFAsNfOV-17">
          <mxGeometry width="50" height="50" relative="1" as="geometry">
            <mxPoint x="470" y="490" as="sourcePoint" />
            <mxPoint x="520" y="440" as="targetPoint" />
          </mxGeometry>
        </mxCell>
        <mxCell id="YNeAX88VHMWBPFAsNfOV-67" value="" style="endArrow=classic;html=1;rounded=0;exitX=0.5;exitY=0;exitDx=0;exitDy=0;exitPerimeter=0;entryX=0.5;entryY=1;entryDx=0;entryDy=0;entryPerimeter=0;" edge="1" parent="1" source="YNeAX88VHMWBPFAsNfOV-17" target="YNeAX88VHMWBPFAsNfOV-15">
          <mxGeometry width="50" height="50" relative="1" as="geometry">
            <mxPoint x="411" y="910" as="sourcePoint" />
            <mxPoint x="411" y="782" as="targetPoint" />
          </mxGeometry>
        </mxCell>
        <mxCell id="YNeAX88VHMWBPFAsNfOV-68" style="edgeStyle=orthogonalEdgeStyle;rounded=0;orthogonalLoop=1;jettySize=auto;html=1;exitX=0.5;exitY=0;exitDx=0;exitDy=0;exitPerimeter=0;" edge="1" parent="1" source="YNeAX88VHMWBPFAsNfOV-15" target="YNeAX88VHMWBPFAsNfOV-46">
          <mxGeometry relative="1" as="geometry">
            <mxPoint x="44" y="490" as="targetPoint" />
            <Array as="points">
              <mxPoint x="406" y="516" />
              <mxPoint x="45" y="516" />
            </Array>
          </mxGeometry>
        </mxCell>
        <mxCell id="YNeAX88VHMWBPFAsNfOV-70" style="edgeStyle=orthogonalEdgeStyle;rounded=0;orthogonalLoop=1;jettySize=auto;html=1;exitX=0.5;exitY=0;exitDx=0;exitDy=0;exitPerimeter=0;" edge="1" parent="1" target="YNeAX88VHMWBPFAsNfOV-54">
          <mxGeometry relative="1" as="geometry">
            <mxPoint x="55" y="340" as="targetPoint" />
            <mxPoint x="416" y="550" as="sourcePoint" />
            <Array as="points">
              <mxPoint x="416" y="520" />
              <mxPoint x="655" y="520" />
            </Array>
          </mxGeometry>
        </mxCell>
        <mxCell id="YNeAX88VHMWBPFAsNfOV-71" value="" style="endArrow=classic;html=1;rounded=0;" edge="1" parent="1">
          <mxGeometry width="50" height="50" relative="1" as="geometry">
            <mxPoint x="630" y="310" as="sourcePoint" />
            <mxPoint x="550" y="310" as="targetPoint" />
          </mxGeometry>
        </mxCell>
      </root>
    </mxGraphModel>
  </diagram>
</mxfile>
